<mxfile host="app.diagrams.net" modified="2021-02-03T00:31:14.492Z" agent="5.0 (Macintosh; Intel Mac OS X 10_15_6) AppleWebKit/605.1.15 (KHTML, like Gecko) Version/14.0 Safari/605.1.15" etag="L7RCf_mZqdUDc8kszxkY" version="14.2.9" type="github">
  <diagram id="Gv_tjTJuO-C7QSKp1yFk" name="Page-1">
    <mxGraphModel dx="1815" dy="574" grid="1" gridSize="10" guides="1" tooltips="1" connect="1" arrows="1" fold="1" page="1" pageScale="1" pageWidth="850" pageHeight="1100" math="1" shadow="0">
      <root>
        <mxCell id="0" />
        <mxCell id="1" parent="0" />
        <mxCell id="qLEU6Lc94TPWklZHJOM7-1" value="SNP&lt;sub&gt;1&lt;/sub&gt;" style="ellipse;whiteSpace=wrap;html=1;aspect=fixed;" vertex="1" parent="1">
          <mxGeometry x="160" y="80" width="40" height="40" as="geometry" />
        </mxCell>
        <mxCell id="qLEU6Lc94TPWklZHJOM7-2" value="SNP&lt;font size=&quot;1&quot;&gt;2&lt;/font&gt;" style="ellipse;whiteSpace=wrap;html=1;aspect=fixed;" vertex="1" parent="1">
          <mxGeometry x="240" y="80" width="40" height="40" as="geometry" />
        </mxCell>
        <mxCell id="qLEU6Lc94TPWklZHJOM7-3" value="SNP&lt;font size=&quot;1&quot;&gt;n&lt;/font&gt;" style="ellipse;whiteSpace=wrap;html=1;aspect=fixed;" vertex="1" parent="1">
          <mxGeometry x="340" y="80" width="40" height="40" as="geometry" />
        </mxCell>
        <mxCell id="qLEU6Lc94TPWklZHJOM7-4" value="&lt;b&gt;&lt;font style=&quot;font-size: 20px&quot;&gt;. . .&lt;/font&gt;&lt;/b&gt;" style="text;html=1;strokeColor=none;fillColor=none;align=center;verticalAlign=middle;whiteSpace=wrap;rounded=0;" vertex="1" parent="1">
          <mxGeometry x="290" y="85" width="40" height="20" as="geometry" />
        </mxCell>
        <mxCell id="qLEU6Lc94TPWklZHJOM7-5" value="" style="endArrow=classic;html=1;exitX=0.5;exitY=1;exitDx=0;exitDy=0;entryX=0.5;entryY=0;entryDx=0;entryDy=0;" edge="1" parent="1" source="qLEU6Lc94TPWklZHJOM7-1" target="qLEU6Lc94TPWklZHJOM7-6">
          <mxGeometry width="50" height="50" relative="1" as="geometry">
            <mxPoint x="170" y="170" as="sourcePoint" />
            <mxPoint x="120" y="150" as="targetPoint" />
          </mxGeometry>
        </mxCell>
        <mxCell id="qLEU6Lc94TPWklZHJOM7-6" value="`h_1^{(1)}`&amp;nbsp;" style="ellipse;whiteSpace=wrap;html=1;aspect=fixed;" vertex="1" parent="1">
          <mxGeometry x="120" y="160" width="40" height="40" as="geometry" />
        </mxCell>
        <mxCell id="qLEU6Lc94TPWklZHJOM7-7" value="`h_2^{(1)}`&amp;nbsp;" style="ellipse;whiteSpace=wrap;html=1;aspect=fixed;" vertex="1" parent="1">
          <mxGeometry x="200" y="160" width="40" height="40" as="geometry" />
        </mxCell>
        <mxCell id="qLEU6Lc94TPWklZHJOM7-8" value="`h_3^{(1)}`&amp;nbsp;" style="ellipse;whiteSpace=wrap;html=1;aspect=fixed;" vertex="1" parent="1">
          <mxGeometry x="280" y="160" width="40" height="40" as="geometry" />
        </mxCell>
        <mxCell id="qLEU6Lc94TPWklZHJOM7-9" value="`h_{n_1}^{(1)}`&amp;nbsp;" style="ellipse;whiteSpace=wrap;html=1;aspect=fixed;" vertex="1" parent="1">
          <mxGeometry x="380" y="160" width="40" height="40" as="geometry" />
        </mxCell>
        <mxCell id="qLEU6Lc94TPWklZHJOM7-10" value="&lt;b&gt;&lt;font style=&quot;font-size: 20px&quot;&gt;. . .&lt;/font&gt;&lt;/b&gt;" style="text;html=1;strokeColor=none;fillColor=none;align=center;verticalAlign=middle;whiteSpace=wrap;rounded=0;" vertex="1" parent="1">
          <mxGeometry x="333" y="165" width="40" height="20" as="geometry" />
        </mxCell>
        <mxCell id="qLEU6Lc94TPWklZHJOM7-11" value="" style="endArrow=classic;html=1;exitX=0.5;exitY=1;exitDx=0;exitDy=0;" edge="1" parent="1">
          <mxGeometry width="50" height="50" relative="1" as="geometry">
            <mxPoint x="260" y="120" as="sourcePoint" />
            <mxPoint x="220" y="160" as="targetPoint" />
          </mxGeometry>
        </mxCell>
        <mxCell id="qLEU6Lc94TPWklZHJOM7-12" value="" style="endArrow=classic;html=1;exitX=0.5;exitY=1;exitDx=0;exitDy=0;entryX=0.5;entryY=0;entryDx=0;entryDy=0;" edge="1" parent="1" source="qLEU6Lc94TPWklZHJOM7-3" target="qLEU6Lc94TPWklZHJOM7-8">
          <mxGeometry width="50" height="50" relative="1" as="geometry">
            <mxPoint x="345.85786437626894" y="117.14213562373106" as="sourcePoint" />
            <mxPoint x="309" y="161" as="targetPoint" />
          </mxGeometry>
        </mxCell>
        <mxCell id="qLEU6Lc94TPWklZHJOM7-13" value="" style="endArrow=classic;html=1;exitX=0.5;exitY=1;exitDx=0;exitDy=0;" edge="1" parent="1" source="qLEU6Lc94TPWklZHJOM7-3">
          <mxGeometry width="50" height="50" relative="1" as="geometry">
            <mxPoint x="280" y="270" as="sourcePoint" />
            <mxPoint x="400" y="160" as="targetPoint" />
          </mxGeometry>
        </mxCell>
        <mxCell id="qLEU6Lc94TPWklZHJOM7-14" value="" style="endArrow=classic;html=1;exitX=0.5;exitY=1;exitDx=0;exitDy=0;entryX=0.5;entryY=0;entryDx=0;entryDy=0;" edge="1" parent="1" source="qLEU6Lc94TPWklZHJOM7-3" target="qLEU6Lc94TPWklZHJOM7-6">
          <mxGeometry width="50" height="50" relative="1" as="geometry">
            <mxPoint x="360" y="270" as="sourcePoint" />
            <mxPoint x="410" y="220" as="targetPoint" />
          </mxGeometry>
        </mxCell>
        <mxCell id="qLEU6Lc94TPWklZHJOM7-15" value="" style="endArrow=classic;html=1;exitX=0.5;exitY=1;exitDx=0;exitDy=0;entryX=0.5;entryY=0;entryDx=0;entryDy=0;" edge="1" parent="1" source="qLEU6Lc94TPWklZHJOM7-3" target="qLEU6Lc94TPWklZHJOM7-7">
          <mxGeometry width="50" height="50" relative="1" as="geometry">
            <mxPoint x="360" y="270" as="sourcePoint" />
            <mxPoint x="410" y="220" as="targetPoint" />
          </mxGeometry>
        </mxCell>
        <mxCell id="qLEU6Lc94TPWklZHJOM7-16" value="" style="endArrow=classic;html=1;entryX=0.5;entryY=0;entryDx=0;entryDy=0;" edge="1" parent="1" target="qLEU6Lc94TPWklZHJOM7-7">
          <mxGeometry width="50" height="50" relative="1" as="geometry">
            <mxPoint x="180" y="120" as="sourcePoint" />
            <mxPoint x="230" y="160" as="targetPoint" />
          </mxGeometry>
        </mxCell>
        <mxCell id="qLEU6Lc94TPWklZHJOM7-17" value="" style="endArrow=classic;html=1;entryX=0.5;entryY=0;entryDx=0;entryDy=0;" edge="1" parent="1" target="qLEU6Lc94TPWklZHJOM7-8">
          <mxGeometry width="50" height="50" relative="1" as="geometry">
            <mxPoint x="180" y="120" as="sourcePoint" />
            <mxPoint x="390" y="220" as="targetPoint" />
          </mxGeometry>
        </mxCell>
        <mxCell id="qLEU6Lc94TPWklZHJOM7-18" value="" style="endArrow=classic;html=1;exitX=0.5;exitY=1;exitDx=0;exitDy=0;entryX=0.5;entryY=0;entryDx=0;entryDy=0;" edge="1" parent="1" source="qLEU6Lc94TPWklZHJOM7-1" target="qLEU6Lc94TPWklZHJOM7-9">
          <mxGeometry width="50" height="50" relative="1" as="geometry">
            <mxPoint x="340" y="240" as="sourcePoint" />
            <mxPoint x="390" y="190" as="targetPoint" />
          </mxGeometry>
        </mxCell>
        <mxCell id="qLEU6Lc94TPWklZHJOM7-19" value="" style="endArrow=classic;html=1;exitX=0.5;exitY=1;exitDx=0;exitDy=0;entryX=0.5;entryY=0;entryDx=0;entryDy=0;" edge="1" parent="1" source="qLEU6Lc94TPWklZHJOM7-2" target="qLEU6Lc94TPWklZHJOM7-6">
          <mxGeometry width="50" height="50" relative="1" as="geometry">
            <mxPoint x="340" y="240" as="sourcePoint" />
            <mxPoint x="390" y="190" as="targetPoint" />
          </mxGeometry>
        </mxCell>
        <mxCell id="qLEU6Lc94TPWklZHJOM7-20" value="" style="endArrow=classic;html=1;exitX=0.5;exitY=1;exitDx=0;exitDy=0;entryX=0.5;entryY=0;entryDx=0;entryDy=0;" edge="1" parent="1" source="qLEU6Lc94TPWklZHJOM7-2" target="qLEU6Lc94TPWklZHJOM7-8">
          <mxGeometry width="50" height="50" relative="1" as="geometry">
            <mxPoint x="310" y="350" as="sourcePoint" />
            <mxPoint x="390" y="190" as="targetPoint" />
          </mxGeometry>
        </mxCell>
        <mxCell id="qLEU6Lc94TPWklZHJOM7-21" value="" style="endArrow=classic;html=1;exitX=0.5;exitY=1;exitDx=0;exitDy=0;entryX=0.5;entryY=0;entryDx=0;entryDy=0;" edge="1" parent="1" source="qLEU6Lc94TPWklZHJOM7-2" target="qLEU6Lc94TPWklZHJOM7-9">
          <mxGeometry width="50" height="50" relative="1" as="geometry">
            <mxPoint x="340" y="240" as="sourcePoint" />
            <mxPoint x="390" y="190" as="targetPoint" />
          </mxGeometry>
        </mxCell>
        <mxCell id="qLEU6Lc94TPWklZHJOM7-60" style="rounded=0;orthogonalLoop=1;jettySize=auto;html=1;exitX=0.5;exitY=1;exitDx=0;exitDy=0;entryX=0.5;entryY=0;entryDx=0;entryDy=0;" edge="1" parent="1" source="qLEU6Lc94TPWklZHJOM7-26" target="qLEU6Lc94TPWklZHJOM7-51">
          <mxGeometry relative="1" as="geometry" />
        </mxCell>
        <mxCell id="qLEU6Lc94TPWklZHJOM7-26" value="`h_1^{(2)}`&amp;nbsp;" style="ellipse;whiteSpace=wrap;html=1;aspect=fixed;" vertex="1" parent="1">
          <mxGeometry x="195" y="240" width="40" height="40" as="geometry" />
        </mxCell>
        <mxCell id="qLEU6Lc94TPWklZHJOM7-29" value="`h_{n_2}^{(2)}`&amp;nbsp;" style="ellipse;whiteSpace=wrap;html=1;aspect=fixed;" vertex="1" parent="1">
          <mxGeometry x="280" y="240" width="40" height="40" as="geometry" />
        </mxCell>
        <mxCell id="qLEU6Lc94TPWklZHJOM7-30" value="&lt;b&gt;&lt;font style=&quot;font-size: 20px&quot;&gt;. . .&lt;/font&gt;&lt;/b&gt;" style="text;html=1;strokeColor=none;fillColor=none;align=center;verticalAlign=middle;whiteSpace=wrap;rounded=0;" vertex="1" parent="1">
          <mxGeometry x="240" y="250" width="40" height="20" as="geometry" />
        </mxCell>
        <mxCell id="qLEU6Lc94TPWklZHJOM7-31" value="" style="endArrow=classic;html=1;exitX=0.5;exitY=1;exitDx=0;exitDy=0;entryX=0.5;entryY=0;entryDx=0;entryDy=0;" edge="1" parent="1" source="qLEU6Lc94TPWklZHJOM7-6" target="qLEU6Lc94TPWklZHJOM7-26">
          <mxGeometry width="50" height="50" relative="1" as="geometry">
            <mxPoint x="20" y="280" as="sourcePoint" />
            <mxPoint x="70" y="230" as="targetPoint" />
          </mxGeometry>
        </mxCell>
        <mxCell id="qLEU6Lc94TPWklZHJOM7-32" value="" style="endArrow=classic;html=1;exitX=0.5;exitY=1;exitDx=0;exitDy=0;entryX=0.5;entryY=0;entryDx=0;entryDy=0;" edge="1" parent="1" source="qLEU6Lc94TPWklZHJOM7-7" target="qLEU6Lc94TPWklZHJOM7-26">
          <mxGeometry width="50" height="50" relative="1" as="geometry">
            <mxPoint x="150" y="210" as="sourcePoint" />
            <mxPoint x="150" y="250" as="targetPoint" />
          </mxGeometry>
        </mxCell>
        <mxCell id="qLEU6Lc94TPWklZHJOM7-33" value="" style="endArrow=classic;html=1;exitX=0.5;exitY=1;exitDx=0;exitDy=0;entryX=0.5;entryY=0;entryDx=0;entryDy=0;" edge="1" parent="1" source="qLEU6Lc94TPWklZHJOM7-8" target="qLEU6Lc94TPWklZHJOM7-26">
          <mxGeometry width="50" height="50" relative="1" as="geometry">
            <mxPoint x="160" y="220" as="sourcePoint" />
            <mxPoint x="160" y="260" as="targetPoint" />
          </mxGeometry>
        </mxCell>
        <mxCell id="qLEU6Lc94TPWklZHJOM7-34" value="" style="endArrow=classic;html=1;exitX=0.5;exitY=1;exitDx=0;exitDy=0;entryX=0.5;entryY=0;entryDx=0;entryDy=0;" edge="1" parent="1" source="qLEU6Lc94TPWklZHJOM7-9" target="qLEU6Lc94TPWklZHJOM7-26">
          <mxGeometry width="50" height="50" relative="1" as="geometry">
            <mxPoint x="170" y="230" as="sourcePoint" />
            <mxPoint x="170" y="270" as="targetPoint" />
          </mxGeometry>
        </mxCell>
        <mxCell id="qLEU6Lc94TPWklZHJOM7-43" value="" style="endArrow=classic;html=1;exitX=0.5;exitY=1;exitDx=0;exitDy=0;entryX=0.5;entryY=0;entryDx=0;entryDy=0;" edge="1" parent="1" source="qLEU6Lc94TPWklZHJOM7-6" target="qLEU6Lc94TPWklZHJOM7-29">
          <mxGeometry width="50" height="50" relative="1" as="geometry">
            <mxPoint x="260" y="320" as="sourcePoint" />
            <mxPoint x="260" y="360" as="targetPoint" />
          </mxGeometry>
        </mxCell>
        <mxCell id="qLEU6Lc94TPWklZHJOM7-44" value="" style="endArrow=classic;html=1;exitX=0.5;exitY=1;exitDx=0;exitDy=0;entryX=0.5;entryY=0;entryDx=0;entryDy=0;" edge="1" parent="1" source="qLEU6Lc94TPWklZHJOM7-7" target="qLEU6Lc94TPWklZHJOM7-29">
          <mxGeometry width="50" height="50" relative="1" as="geometry">
            <mxPoint x="270" y="330" as="sourcePoint" />
            <mxPoint x="270" y="370" as="targetPoint" />
          </mxGeometry>
        </mxCell>
        <mxCell id="qLEU6Lc94TPWklZHJOM7-45" value="" style="endArrow=classic;html=1;exitX=0.5;exitY=1;exitDx=0;exitDy=0;entryX=0.5;entryY=0;entryDx=0;entryDy=0;" edge="1" parent="1" source="qLEU6Lc94TPWklZHJOM7-8" target="qLEU6Lc94TPWklZHJOM7-29">
          <mxGeometry width="50" height="50" relative="1" as="geometry">
            <mxPoint x="280" y="340" as="sourcePoint" />
            <mxPoint x="280" y="380" as="targetPoint" />
          </mxGeometry>
        </mxCell>
        <mxCell id="qLEU6Lc94TPWklZHJOM7-46" value="" style="endArrow=classic;html=1;exitX=0.5;exitY=1;exitDx=0;exitDy=0;entryX=0.5;entryY=0;entryDx=0;entryDy=0;" edge="1" parent="1" source="qLEU6Lc94TPWklZHJOM7-9" target="qLEU6Lc94TPWklZHJOM7-29">
          <mxGeometry width="50" height="50" relative="1" as="geometry">
            <mxPoint x="290" y="350" as="sourcePoint" />
            <mxPoint x="290" y="390" as="targetPoint" />
          </mxGeometry>
        </mxCell>
        <mxCell id="qLEU6Lc94TPWklZHJOM7-51" value="`\hat{y_1}`&amp;nbsp;" style="ellipse;whiteSpace=wrap;html=1;aspect=fixed;strokeWidth=1;fillColor=none;gradientColor=#ffffff;" vertex="1" parent="1">
          <mxGeometry x="240" y="320" width="45" height="45" as="geometry" />
        </mxCell>
        <mxCell id="qLEU6Lc94TPWklZHJOM7-56" value="" style="rounded=0;whiteSpace=wrap;html=1;dashed=1;strokeColor=#0000CC;strokeWidth=1;fillColor=none;gradientColor=#ffffff;" vertex="1" parent="1">
          <mxGeometry x="110" y="70" width="320" height="50" as="geometry" />
        </mxCell>
        <mxCell id="qLEU6Lc94TPWklZHJOM7-57" value="&lt;font color=&quot;#0000cc&quot; size=&quot;3&quot;&gt;&lt;span&gt;输入层&lt;/span&gt;&lt;/font&gt;" style="text;html=1;strokeColor=none;fillColor=none;align=center;verticalAlign=middle;whiteSpace=wrap;rounded=0;labelBorderColor=none;labelBackgroundColor=none;dashed=1;" vertex="1" parent="1">
          <mxGeometry x="20" y="90" width="80" height="20" as="geometry" />
        </mxCell>
        <mxCell id="qLEU6Lc94TPWklZHJOM7-61" value="" style="endArrow=classic;html=1;exitX=0.5;exitY=1;exitDx=0;exitDy=0;entryX=0.5;entryY=0;entryDx=0;entryDy=0;" edge="1" parent="1" source="qLEU6Lc94TPWklZHJOM7-29" target="qLEU6Lc94TPWklZHJOM7-51">
          <mxGeometry width="50" height="50" relative="1" as="geometry">
            <mxPoint x="400" y="320" as="sourcePoint" />
            <mxPoint x="450" y="270" as="targetPoint" />
          </mxGeometry>
        </mxCell>
        <mxCell id="qLEU6Lc94TPWklZHJOM7-62" value="" style="rounded=0;whiteSpace=wrap;html=1;fillColor=none;dashed=1;strokeColor=#0000CC;" vertex="1" parent="1">
          <mxGeometry x="110" y="140" width="320" height="160" as="geometry" />
        </mxCell>
        <mxCell id="qLEU6Lc94TPWklZHJOM7-63" value="&lt;font color=&quot;#0000cc&quot; style=&quot;font-size: 16px&quot;&gt;2层隐藏层，&lt;br&gt;第`i`层有`n_i`个节点，&lt;br&gt;`n_1 &amp;lt; n_2`&lt;br&gt;&lt;/font&gt;" style="text;html=1;strokeColor=none;fillColor=none;align=center;verticalAlign=middle;whiteSpace=wrap;rounded=0;dashed=1;labelBackgroundColor=none;" vertex="1" parent="1">
          <mxGeometry x="-20" y="210" width="140" height="20" as="geometry" />
        </mxCell>
        <mxCell id="qLEU6Lc94TPWklZHJOM7-67" value="" style="rounded=0;whiteSpace=wrap;html=1;dashed=1;fillColor=none;strokeColor=none;" vertex="1" parent="1">
          <mxGeometry x="-30" y="60" width="480" height="310" as="geometry" />
        </mxCell>
      </root>
    </mxGraphModel>
  </diagram>
</mxfile>
